<?xml version="1.0" encoding="UTF-8"?>
<svg width="31px" height="12px" viewBox="0 0 31 12" version="1.1" xmlns="http://www.w3.org/2000/svg" xmlns:xlink="http://www.w3.org/1999/xlink">
    <title>right-arrow</title>
    <g id="Page-1" stroke="none" stroke-width="1" fill="none" fill-rule="evenodd">
        <g id="Toonzaalkeuken" transform="translate(-1285.000000, -678.000000)" fill="#FFFFFF">
            <g id="Group-5" transform="translate(1180.000000, 644.000000)">
                <path d="M134.619024,39.125056 L107.837568,39.125056 L111.5436,35.418784 C111.868272,35.094304 111.868272,34.567936 111.5436,34.243504 C111.218928,33.918832 110.69256,33.918832 110.368368,34.243504 L105.243504,39.368464 C104.918832,39.692944 104.918832,40.21936 105.243504,40.543744 L110.368368,45.668944 C110.530656,45.831328 110.743344,45.9124 110.955984,45.9124 C111.168624,45.9124 111.381312,45.831328 111.5436,45.668944 C111.868272,45.344464 111.868272,44.818096 111.5436,44.493712 L107.837568,40.787248 L134.619024,40.787248 C135.078,40.787248 135.450192,40.415104 135.450192,39.956128 C135.450192,39.497152 135.078048,39.125056 134.619024,39.125056 Z" id="right-arrow" transform="translate(120.225096, 39.956200) scale(-1, 1) translate(-120.225096, -39.956200) "></path>
            </g>
        </g>
    </g>
</svg>