<?xml version="1.0" encoding="UTF-8"?>
<svg width="30px" height="13px" viewBox="0 0 30 13" version="1.1" xmlns="http://www.w3.org/2000/svg" xmlns:xlink="http://www.w3.org/1999/xlink">
    <title>left-arrow</title>
    <g id="Page-1" stroke="none" stroke-width="1" fill="none" fill-rule="evenodd">
        <g id="Toonzaalkeuken" transform="translate(-1205.000000, -677.000000)" fill="#FFFFFF">
            <g id="Group-5" transform="translate(1180.000000, 644.000000)">
                <path d="M54.1811204,39.075144 L27.7956159,39.075144 L31.4468559,35.3416173 C31.7667278,35.0147512 31.7667278,34.4845124 31.4468559,34.1576947 C31.126984,33.8306351 30.6083981,33.8306351 30.2889992,34.1576947 L25.2399039,39.320342 C24.920032,39.6472081 24.920032,40.1774952 25.2399039,40.5042646 L30.2889992,45.6671537 C30.4488878,45.8307318 30.6584313,45.9124 30.8679275,45.9124 C31.0774237,45.9124 31.2869673,45.8307318 31.4468559,45.6671537 C31.7667278,45.3402876 31.7667278,44.8100488 31.4468559,44.4832794 L27.7956159,40.7495593 L54.1811204,40.7495593 C54.6333107,40.7495593 55,40.3746786 55,39.9123275 C55,39.4499763 54.633358,39.075144 54.1811204,39.075144 Z" id="left-arrow"></path>
            </g>
        </g>
    </g>
</svg>