<?xml version="1.0" encoding="UTF-8"?>
<svg width="16px" height="23px" viewBox="0 0 16 23" version="1.1" xmlns="http://www.w3.org/2000/svg" xmlns:xlink="http://www.w3.org/1999/xlink">
    <title>kabedesign</title>
    <g id="Symbols" stroke="none" stroke-width="1" fill="none" fill-rule="evenodd">
        <g id="footer" transform="translate(-1399.000000, -658.000000)">
            <g id="kabedesign" transform="translate(1400.000000, 659.000000)">
                <path d="M4.38053684,12.9944138 L4.38053684,13.1393103 L5.29001053,13.1393103 C6.38137895,13.1393103 7.22510526,12.9522155 7.82137895,12.577931 C8.41755789,12.2037414 8.93794737,11.5513276 9.38264211,10.6206897 L10.7165368,7.76827586 L13.5965368,7.76827586 L12.2626421,10.5903448 C11.8584,11.4602931 11.4592737,12.188569 11.0651684,12.7751724 C10.6710632,13.3618707 10.2618,13.8473879 9.83737895,14.2317241 L14.4756947,21.3931034 L11.2622211,21.3931034 L7.50306316,15.4455172 C7.19990526,15.5265 6.86643158,15.582069 6.50264211,15.6124138 C6.13885263,15.6427586 5.73461053,15.657931 5.29001053,15.657931 L4.38053684,15.657931 L4.38053684,21.3931034 L1.6218,21.3931034 L1.6218,12.9944138 L4.38053684,12.9944138 Z M4.38053684,10.949931 L1.6218,10.949931 L1.6218,1.9645431 L-3.46389584e-14,1.36656034 L-3.46389584e-14,0.00104310345 L1.6218,0.00104310345 L1.6218,-7.63833441e-14 L4.38053684,-7.63833441e-14 L4.38053684,10.949931 Z" id="Fill-1" fill="#5E5650"></path>
                <path d="M4.38053684,12.9944138 L4.38053684,13.1393103 L5.29001053,13.1393103 C6.38137895,13.1393103 7.22510526,12.9522155 7.82137895,12.577931 C8.41755789,12.2037414 8.93794737,11.5513276 9.38264211,10.6206897 L10.7165368,7.76827586 L13.5965368,7.76827586 L12.2626421,10.5903448 C11.8584,11.4602931 11.4592737,12.188569 11.0651684,12.7751724 C10.6710632,13.3618707 10.2618,13.8473879 9.83737895,14.2317241 L14.4756947,21.3931034 L11.2622211,21.3931034 L7.50306316,15.4455172 C7.19990526,15.5265 6.86643158,15.582069 6.50264211,15.6124138 C6.13885263,15.6427586 5.73461053,15.657931 5.29001053,15.657931 L4.38053684,15.657931 L4.38053684,21.3931034 L1.6218,21.3931034 L1.6218,12.9944138 L4.38053684,12.9944138 Z M4.38053684,10.949931 L1.6218,10.949931 L1.6218,1.9645431 L-3.46389584e-14,1.36656034 L-3.46389584e-14,0.00104310345 L1.6218,0.00104310345 L1.6218,-7.63833441e-14 L4.38053684,-7.63833441e-14 L4.38053684,10.949931 Z" id="Stroke-2" stroke="#5E5650" stroke-width="0.3" stroke-linejoin="round"></path>
            </g>
        </g>
    </g>
</svg>