<?xml version="1.0" encoding="UTF-8"?>
<svg width="216px" height="21px" viewBox="0 0 216 21" version="1.1" xmlns="http://www.w3.org/2000/svg" xmlns:xlink="http://www.w3.org/1999/xlink">
    <title>toonzaalkeukens.nl</title>
    <g id="Symbols" stroke="none" stroke-width="1" fill="none" fill-rule="evenodd">
        <g id="header" transform="translate(-1.000000, -41.000000)" fill="#fff" fill-rule="nonzero">
            <g id="toonzaalkeukens.nl" transform="translate(1.036000, 41.680000)">
                <path d="M7.336,18.34 L7.336,19.544 C6.44,19.6 5.98266667,19.628 5.964,19.628 C4.82533333,19.628 3.976,19.46 3.416,19.124 C2.59466667,18.6386667 2.184,17.7706667 2.184,16.52 L2.184,7.14 L0,7.14 L0,5.992 L2.184,5.992 L2.184,2.884 L3.724,1.932 L3.724,5.992 L7.224,5.992 L7.224,7.14 L3.724,7.14 L3.724,15.456 C3.724,16.3893333 3.82666667,17.0613333 4.032,17.472 C4.368,18.1813333 5.068,18.536 6.132,18.536 C6.56133333,18.536 6.96266667,18.4706667 7.336,18.34 Z" id="Path"></path>
                <path d="M15.756,19.628 C13.908,19.628 12.5173333,18.9653333 11.584,17.64 C10.7066667,16.4266667 10.268,14.7373333 10.268,12.572 C10.268,10.5186667 10.716,8.876 11.612,7.644 C12.564,6.33733333 13.908,5.684 15.644,5.684 C17.4173333,5.684 18.7893333,6.314 19.76,7.574 C20.7306667,8.834 21.216,10.584 21.216,12.824 C21.216,14.8773333 20.768,16.5013333 19.872,17.696 C18.92,18.984 17.548,19.628 15.756,19.628 Z M11.976,12.32 C11.976,16.464 13.2266667,18.536 15.728,18.536 C18.248,18.536 19.508,16.66 19.508,12.908 C19.508,8.82 18.22,6.776 15.644,6.776 C14.3373333,6.776 13.3666667,7.37333333 12.732,8.568 C12.228,9.53866667 11.976,10.7893333 11.976,12.32 Z" id="Shape"></path>
                <path d="M30.252,19.628 C28.404,19.628 27.0133333,18.9653333 26.08,17.64 C25.2026667,16.4266667 24.764,14.7373333 24.764,12.572 C24.764,10.5186667 25.212,8.876 26.108,7.644 C27.06,6.33733333 28.404,5.684 30.14,5.684 C31.9133333,5.684 33.2853333,6.314 34.256,7.574 C35.2266667,8.834 35.712,10.584 35.712,12.824 C35.712,14.8773333 35.264,16.5013333 34.368,17.696 C33.416,18.984 32.044,19.628 30.252,19.628 Z M26.472,12.32 C26.472,16.464 27.7226667,18.536 30.224,18.536 C32.744,18.536 34.004,16.66 34.004,12.908 C34.004,8.82 32.716,6.776 30.14,6.776 C28.8333333,6.776 27.8626667,7.37333333 27.228,8.568 C26.724,9.53866667 26.472,10.7893333 26.472,12.32 Z" id="Shape"></path>
                <path d="M41.836,5.992 L41.836,9.632 L41.892,9.632 C42.1906667,8.75466667 42.62,7.97066667 43.18,7.28 C44.076,6.216 45.1213333,5.684 46.316,5.684 C48.556,5.684 49.676,7.13066667 49.676,10.024 L49.676,19.32 L48.136,19.32 L48.136,10.416 C48.136,9.38933333 48.024,8.63333333 47.8,8.148 C47.4826667,7.43866667 46.8946667,7.084 46.036,7.084 C44.804,7.084 43.7586667,7.924 42.9,9.604 C42.1906667,10.9666667 41.836,12.1986667 41.836,13.3 L41.836,19.32 L40.296,19.32 L40.296,5.992 L41.836,5.992 Z" id="Path"></path>
                <polygon id="Path" points="53.756 19.32 53.756 18.144 61.064 7.14 54.288 7.14 54.288 5.992 63.108 5.992 63.108 6.776 55.632 18.172 63.136 18.172 63.136 19.32"></polygon>
                <path d="M73.488,19.32 L73.488,17.248 L73.432,17.248 C73.208,17.752 72.816,18.228 72.256,18.676 C71.4533333,19.3106667 70.5666667,19.628 69.596,19.628 C68.5506667,19.628 67.6966667,19.292 67.034,18.62 C66.3713333,17.948 66.04,17.1546667 66.04,16.24 C66.04,14.9146667 66.6373333,13.8693333 67.832,13.104 C69.1013333,12.3013333 70.9866667,11.9 73.488,11.9 L73.488,11.004 C73.488,9.604 73.376,8.64266667 73.152,8.12 C72.7786667,7.224 71.9853333,6.776 70.772,6.776 C69.204,6.776 68.3733333,7.59733333 68.28,9.24 L66.348,9.24 C66.6653333,6.86933333 68.196,5.684 70.94,5.684 C72.564,5.684 73.6933333,6.16933333 74.328,7.14 C74.7946667,7.83066667 75.028,8.876 75.028,10.276 L75.028,19.32 L73.488,19.32 Z M73.488,13.748 L73.488,12.992 C69.6613333,12.992 67.748,14.0093333 67.748,16.044 C67.748,16.6973333 67.972,17.2246667 68.42,17.626 C68.868,18.0273333 69.4186667,18.228 70.072,18.228 C71.2293333,18.228 72.116,17.7146667 72.732,16.688 C73.236,15.8666667 73.488,14.8866667 73.488,13.748 Z" id="Shape"></path>
                <path d="M86.948,19.32 L86.948,17.248 L86.892,17.248 C86.668,17.752 86.276,18.228 85.716,18.676 C84.9133333,19.3106667 84.0266667,19.628 83.056,19.628 C82.0106667,19.628 81.1566667,19.292 80.494,18.62 C79.8313333,17.948 79.5,17.1546667 79.5,16.24 C79.5,14.9146667 80.0973333,13.8693333 81.292,13.104 C82.5613333,12.3013333 84.4466667,11.9 86.948,11.9 L86.948,11.004 C86.948,9.604 86.836,8.64266667 86.612,8.12 C86.2386667,7.224 85.4453333,6.776 84.232,6.776 C82.664,6.776 81.8333333,7.59733333 81.74,9.24 L79.808,9.24 C80.1253333,6.86933333 81.656,5.684 84.4,5.684 C86.024,5.684 87.1533333,6.16933333 87.788,7.14 C88.2546667,7.83066667 88.488,8.876 88.488,10.276 L88.488,19.32 L86.948,19.32 Z M86.948,13.748 L86.948,12.992 C83.1213333,12.992 81.208,14.0093333 81.208,16.044 C81.208,16.6973333 81.432,17.2246667 81.88,17.626 C82.328,18.0273333 82.8786667,18.228 83.532,18.228 C84.6893333,18.228 85.576,17.7146667 86.192,16.688 C86.696,15.8666667 86.948,14.8866667 86.948,13.748 Z" id="Shape"></path>
                <polygon id="Path" points="94.164 19.32 94.164 0 95.704 0 95.704 19.32"></polygon>
                <polygon id="Path" points="101.352 19.32 101.352 0 102.892 0 102.892 12.068 102.948 12.068 107.848 5.992 109.584 5.992 104.6 12.012 110.144 19.32 108.296 19.32 102.948 12.236 102.892 12.236 102.892 19.32"></polygon>
                <path d="M122.064,18.144 L122.064,19.32 C121.261333,19.5253333 120.328,19.628 119.264,19.628 C114.914667,19.628 112.74,17.192 112.74,12.32 C112.74,7.896 114.457333,5.684 117.892,5.684 C119.161333,5.684 120.178667,6.06666667 120.944,6.832 C121.858667,7.74666667 122.316,9.13733333 122.316,11.004 L114.448,11.004 C114.448,13.8226667 115.092,15.876 116.38,17.164 C117.276,18.0413333 118.368,18.48 119.656,18.48 C120.645333,18.48 121.448,18.368 122.064,18.144 Z M114.56,9.912 L120.608,9.912 C120.608,7.82133333 119.628,6.776 117.668,6.776 C115.782667,6.776 114.746667,7.82133333 114.56,9.912 Z" id="Shape"></path>
                <path d="M134.6,19.32 L134.6,16.016 L134.544,16.016 C133.797333,18.424 132.5,19.628 130.652,19.628 C128.038667,19.628 126.732,18.1813333 126.732,15.288 L126.732,5.992 L128.272,5.992 L128.272,14.924 C128.272,15.9506667 128.472667,16.758 128.874,17.346 C129.275333,17.934 129.821333,18.228 130.512,18.228 C131.837333,18.228 132.882667,17.5186667 133.648,16.1 C134.282667,14.9053333 134.6,13.5426667 134.6,12.012 L134.6,5.992 L136.14,5.992 L136.14,19.32 L134.6,19.32 Z" id="Path"></path>
                <polygon id="Path" points="141.872 19.32 141.872 0 143.412 0 143.412 12.068 143.468 12.068 148.368 5.992 150.104 5.992 145.12 12.012 150.664 19.32 148.816 19.32 143.468 12.236 143.412 12.236 143.412 19.32"></polygon>
                <path d="M162.584,18.144 L162.584,19.32 C161.781333,19.5253333 160.848,19.628 159.784,19.628 C155.434667,19.628 153.26,17.192 153.26,12.32 C153.26,7.896 154.977333,5.684 158.412,5.684 C159.681333,5.684 160.698667,6.06666667 161.464,6.832 C162.378667,7.74666667 162.836,9.13733333 162.836,11.004 L154.968,11.004 C154.968,13.8226667 155.612,15.876 156.9,17.164 C157.796,18.0413333 158.888,18.48 160.176,18.48 C161.165333,18.48 161.968,18.368 162.584,18.144 Z M155.08,9.912 L161.128,9.912 C161.128,7.82133333 160.148,6.776 158.188,6.776 C156.302667,6.776 155.266667,7.82133333 155.08,9.912 Z" id="Shape"></path>
                <path d="M168.904,5.992 L168.904,9.632 L168.96,9.632 C169.258667,8.75466667 169.688,7.97066667 170.248,7.28 C171.144,6.216 172.189333,5.684 173.384,5.684 C175.624,5.684 176.744,7.13066667 176.744,10.024 L176.744,19.32 L175.204,19.32 L175.204,10.416 C175.204,9.38933333 175.092,8.63333333 174.868,8.148 C174.550667,7.43866667 173.962667,7.084 173.104,7.084 C171.872,7.084 170.826667,7.924 169.968,9.604 C169.258667,10.9666667 168.904,12.1986667 168.904,13.3 L168.904,19.32 L167.364,19.32 L167.364,5.992 L168.904,5.992 Z" id="Path"></path>
                <path d="M188.58,6.16 L188.58,7.812 C188.132,7.62533333 187.684,7.42933333 187.236,7.224 C186.489333,6.96266667 185.789333,6.832 185.136,6.832 C183.4,6.832 182.532,7.45733333 182.532,8.708 C182.532,9.38 182.812,9.92133333 183.372,10.332 C183.521333,10.444 184.212,10.808 185.444,11.424 C186.956,12.1706667 187.852,12.656 188.132,12.88 C189.009333,13.5706667 189.448,14.4946667 189.448,15.652 C189.448,18.3026667 187.805333,19.628 184.52,19.628 C182.952,19.628 181.72,19.432 180.824,19.04 L180.824,17.332 C181.981333,18.004 183.26,18.34 184.66,18.34 C186.713333,18.34 187.74,17.528 187.74,15.904 C187.74,15.064 187.301333,14.3733333 186.424,13.832 C185.285333,13.2906667 184.156,12.7493333 183.036,12.208 C181.654667,11.4986667 180.964,10.472 180.964,9.128 C180.964,6.832 182.457333,5.684 185.444,5.684 C185.873333,5.684 186.918667,5.84266667 188.58,6.16 Z" id="Path"></path>
                <polygon id="Path" points="191.82 19.32 191.82 16.996 194.144 16.996 194.144 19.32"></polygon>
                <path d="M200.436,5.992 L200.436,9.632 L200.492,9.632 C200.790667,8.75466667 201.22,7.97066667 201.78,7.28 C202.676,6.216 203.721333,5.684 204.916,5.684 C207.156,5.684 208.276,7.13066667 208.276,10.024 L208.276,19.32 L206.736,19.32 L206.736,10.416 C206.736,9.38933333 206.624,8.63333333 206.4,8.148 C206.082667,7.43866667 205.494667,7.084 204.636,7.084 C203.404,7.084 202.358667,7.924 201.5,9.604 C200.790667,10.9666667 200.436,12.1986667 200.436,13.3 L200.436,19.32 L198.896,19.32 L198.896,5.992 L200.436,5.992 Z" id="Path"></path>
                <polygon id="Path" points="213.952 19.32 213.952 0 215.492 0 215.492 19.32"></polygon>
            </g>
        </g>
    </g>
</svg>